<?xml version="1.0" standalone="no"?>
<!DOCTYPE svg PUBLIC "-//W3C//DTD SVG 20010904//EN"
 "http://www.w3.org/TR/2001/REC-SVG-20010904/DTD/svg10.dtd">
<svg version="1.0" xmlns="http://www.w3.org/2000/svg"
 width="695.000000pt" height="671.000000pt" viewBox="0 0 695.000000 671.000000"
 preserveAspectRatio="xMidYMid meet">

<g transform="translate(0.000000,671.000000) scale(0.100000,-0.100000)"
fill="#000000" stroke="none">
<path d="M3420 4813 c-56 -18 -120 -66 -120 -89 0 -7 -5 -14 -12 -16 -19 -7
-23 -129 -5 -164 47 -89 136 -133 231 -111 51 11 122 69 110 89 -4 7 -3 8 4 4
8 -5 12 0 12 13 0 11 5 23 11 27 21 12 5 118 -23 162 -42 63 -146 106 -208 85z
m-70 -56 c0 -2 -10 -12 -22 -23 l-23 -19 19 23 c18 21 26 27 26 19z m10 -27
c0 -5 -5 -10 -11 -10 -5 0 -7 5 -4 10 3 6 8 10 11 10 2 0 4 -4 4 -10z m257
-32 c-3 -8 -6 -5 -6 6 -1 11 2 17 5 13 3 -3 4 -12 1 -19z m20 -94 c1 -25 0
-26 -4 -4 -3 14 -10 29 -17 33 -7 6 -6 7 4 4 8 -2 16 -16 17 -33z m-292 -65
c11 -16 1 -19 -13 -3 -7 8 -8 14 -3 14 5 0 13 -5 16 -11z m-15 -24 c11 -13 10
-14 -4 -9 -9 3 -16 10 -16 15 0 13 6 11 20 -6z m157 -71 c-3 -3 -12 -4 -19 -1
-8 3 -5 6 6 6 11 1 17 -2 13 -5z"/>
<path d="M1865 4295 c-72 -33 -115 -100 -115 -179 0 -110 82 -196 187 -196
124 0 206 78 205 197 -1 110 -85 193 -193 193 -30 -1 -67 -7 -84 -15z"/>
<path d="M3080 3986 l-365 -123 0 -508 0 -508 370 -124 c267 -89 378 -122 398
-117 15 3 25 10 22 15 -4 5 1 6 9 3 21 -8 91 27 74 37 -7 5 -8 9 -2 9 5 0 14
-4 20 -10 7 -7 42 1 104 22 93 30 150 58 121 58 -8 0 -11 3 -8 6 4 4 13 2 20
-5 11 -8 35 -4 103 19 115 39 138 51 122 62 -7 4 -8 8 -2 8 5 0 15 -5 20 -10
7 -7 23 -5 50 5 31 12 33 14 11 11 -40 -5 -20 10 23 18 25 4 31 3 20 -4 -8 -5
-10 -10 -4 -10 33 0 34 21 34 510 0 268 -2 489 -6 492 -7 7 -93 -18 -110 -33
-7 -6 -19 -8 -26 -4 -7 4 -2 -3 11 -14 13 -12 18 -21 13 -21 -6 0 -13 4 -17
10 -3 5 -13 6 -22 3 -12 -5 -14 -3 -8 7 6 10 4 12 -11 6 -38 -16 -138 -45
-142 -42 -2 2 21 12 50 21 29 10 100 33 157 53 l105 36 -370 123 c-203 67
-376 122 -384 122 -8 -1 -179 -56 -380 -123z m967 -222 c-3 -3 -12 -4 -19 -1
-8 3 -5 6 6 6 11 1 17 -2 13 -5z m-175 -30 c-12 -8 -28 -12 -35 -9 -6 4 -1 -3
12 -14 13 -12 18 -21 13 -21 -6 0 -13 4 -17 10 -3 5 -13 6 -22 3 -12 -5 -14
-3 -8 7 6 10 4 12 -11 6 -37 -16 -138 -45 -141 -42 -5 4 196 74 217 75 9 1 6
-5 -8 -15z m-65 -50 c-3 -3 -12 -4 -19 -1 -8 3 -5 6 6 6 11 1 17 -2 13 -5z
m-175 -30 c-12 -8 -28 -12 -35 -9 -6 4 -1 -3 12 -14 13 -12 18 -21 13 -21 -6
0 -13 4 -17 10 -3 5 -13 6 -22 3 -11 -4 -14 -3 -9 5 9 15 10 15 -49 -7 -35
-13 -52 -26 -56 -42 -7 -24 -7 -24 -8 2 -1 24 6 29 82 57 92 35 123 40 89 16z
m575 -46 c-2 -13 -4 -3 -4 22 0 25 2 35 4 23 2 -13 2 -33 0 -45z m-640 -4 c-3
-3 -12 -4 -19 -1 -8 3 -5 6 6 6 11 1 17 -2 13 -5z m-95 -817 c2 -97 0 -177 -4
-177 -5 0 -7 123 -6 273 2 271 6 240 10 -96z m573 53 c3 -5 2 -10 -4 -10 -5 0
-13 5 -16 10 -3 6 -2 10 4 10 5 0 13 -4 16 -10z m-182 -67 c-7 -2 -21 -2 -30
0 -10 3 -4 5 12 5 17 0 24 -2 18 -5z m47 -13 c-20 -13 -33 -13 -25 0 3 6 14
10 23 10 15 0 15 -2 2 -10z m-345 -80 c3 -5 2 -10 -4 -10 -5 0 -13 5 -16 10
-3 6 -2 10 4 10 5 0 13 -4 16 -10z m115 6 c0 -2 -9 -6 -20 -9 -11 -3 -18 -1
-14 4 5 9 34 13 34 5z"/>
<path d="M1911 3549 c-131 -24 -199 -164 -140 -287 65 -134 268 -138 345 -7
85 146 -39 324 -205 294z"/>
<path d="M1865 2775 c-72 -33 -115 -100 -115 -179 0 -110 82 -196 187 -196
124 0 206 78 205 197 -1 110 -85 193 -193 193 -30 -1 -67 -7 -84 -15z"/>
<path d="M3420 2283 c-31 -6 -65 -30 -65 -46 -1 -6 -7 -11 -14 -9 -16 3 -40
-27 -41 -51 0 -10 -4 -16 -9 -13 -12 8 -17 -10 -20 -72 -2 -54 23 -117 42
-105 6 4 7 1 3 -6 -9 -14 20 -51 39 -51 7 0 18 -7 25 -15 7 -9 19 -14 26 -11
7 3 16 1 19 -4 9 -15 103 -3 132 16 17 10 23 19 15 22 -12 4 34 47 50 47 33 0
48 148 19 173 -9 8 -10 10 -3 7 21 -11 0 24 -38 62 -27 28 -118 66 -147 62 -4
-1 -19 -4 -33 -6z m77 -19 c-3 -3 -12 -4 -19 -1 -8 3 -5 6 6 6 11 1 17 -2 13
-5z m-140 -81 c1 -22 -1 -24 -8 -10 -6 9 -7 22 -4 27 9 14 10 13 12 -17z m-27
-20 c0 -25 -15 -12 -17 14 -1 19 1 22 8 12 5 -8 9 -20 9 -26z m291 -140 c-12
-20 -14 -14 -5 12 4 9 9 14 11 11 3 -2 0 -13 -6 -23z m-291 3 c0 -11 -19 -15
-25 -6 -3 5 1 10 9 10 9 0 16 -2 16 -4z m20 -71 c11 -13 10 -14 -4 -9 -9 3
-16 10 -16 15 0 13 6 11 20 -6z"/>
<path d="M3595 1960 c-10 -11 -13 -20 -8 -20 13 0 38 29 31 35 -3 3 -13 -4
-23 -15z"/>
</g>
</svg>
